<svg width="225" height="66" viewBox="0 0 225 66" fill="none" xmlns="http://www.w3.org/2000/svg">
<rect width="225" height="66" rx="33" fill="#009717"/>
<path d="M85.26 40.24C84.14 40.24 83.0667 40.0933 82.04 39.8C81.0133 39.4933 80.1867 39.1 79.56 38.62L80.66 36.18C81.26 36.6067 81.9667 36.96 82.78 37.24C83.6067 37.5067 84.44 37.64 85.28 37.64C85.92 37.64 86.4333 37.58 86.82 37.46C87.22 37.3267 87.5133 37.1467 87.7 36.92C87.8867 36.6933 87.98 36.4333 87.98 36.14C87.98 35.7667 87.8333 35.4733 87.54 35.26C87.2467 35.0333 86.86 34.8533 86.38 34.72C85.9 34.5733 85.3667 34.44 84.78 34.32C84.2067 34.1867 83.6267 34.0267 83.04 33.84C82.4667 33.6533 81.94 33.4133 81.46 33.12C80.98 32.8267 80.5867 32.44 80.28 31.96C79.9867 31.48 79.84 30.8667 79.84 30.12C79.84 29.32 80.0533 28.5933 80.48 27.94C80.92 27.2733 81.5733 26.7467 82.44 26.36C83.32 25.96 84.42 25.76 85.74 25.76C86.62 25.76 87.4867 25.8667 88.34 26.08C89.1933 26.28 89.9467 26.5867 90.6 27L89.6 29.46C88.9467 29.0867 88.2933 28.8133 87.64 28.64C86.9867 28.4533 86.3467 28.36 85.72 28.36C85.0933 28.36 84.58 28.4333 84.18 28.58C83.78 28.7267 83.4933 28.92 83.32 29.16C83.1467 29.3867 83.06 29.6533 83.06 29.96C83.06 30.32 83.2067 30.6133 83.5 30.84C83.7933 31.0533 84.18 31.2267 84.66 31.36C85.14 31.4933 85.6667 31.6267 86.24 31.76C86.8267 31.8933 87.4067 32.0467 87.98 32.22C88.5667 32.3933 89.1 32.6267 89.58 32.92C90.06 33.2133 90.4467 33.6 90.74 34.08C91.0467 34.56 91.2 35.1667 91.2 35.9C91.2 36.6867 90.98 37.4067 90.54 38.06C90.1 38.7133 89.44 39.24 88.56 39.64C87.6933 40.04 86.5933 40.24 85.26 40.24ZM96.1186 40V28.64H91.6386V26H103.839V28.64H99.3586V40H96.1186ZM103.039 40L109.279 26H112.479L118.739 40H115.339L110.219 27.64H111.499L106.359 40H103.039ZM106.159 37L107.019 34.54H114.219L115.099 37H106.159ZM120.191 40V26H126.251C127.505 26 128.585 26.2067 129.491 26.62C130.398 27.02 131.098 27.6 131.591 28.36C132.085 29.12 132.331 30.0267 132.331 31.08C132.331 32.12 132.085 33.02 131.591 33.78C131.098 34.5267 130.398 35.1 129.491 35.5C128.585 35.9 127.505 36.1 126.251 36.1H121.991L123.431 34.68V40H120.191ZM129.091 40L125.591 34.92H129.051L132.591 40H129.091ZM123.431 35.04L121.991 33.52H126.071C127.071 33.52 127.818 33.3067 128.311 32.88C128.805 32.44 129.051 31.84 129.051 31.08C129.051 30.3067 128.805 29.7067 128.311 29.28C127.818 28.8533 127.071 28.64 126.071 28.64H121.991L123.431 27.1V35.04ZM137.603 40V28.64H133.123V26H145.323V28.64H140.843V40H137.603Z" fill="white"/>
</svg>
